<svg width="253" height="30" viewBox="0 0 253 30" fill="none" xmlns="http://www.w3.org/2000/svg">
<g clip-path="url(#clip0_15_439)">
<path d="M129.927 23.1766H136.043C136.262 24.1633 136.827 25.1007 138.74 25.1007C141.093 25.1007 141.875 23.7341 141.875 21.9949V19.4787C141.061 21.0328 139.335 22.3378 136.895 22.3378C133.159 22.3378 130.026 19.6662 130.026 14.6337V14.387C130.026 9.50992 133.132 6.58911 136.865 6.58911C139.435 6.58911 140.971 7.64495 141.88 9.3027V7.05289H148.059V21.9012C148.059 26.7486 144.821 29.3265 138.712 29.3265C133.032 29.3265 130.367 27.0274 129.927 23.1766ZM142.064 14.6337V14.4265C142.064 12.4529 141.028 11.1356 139.178 11.1356C137.328 11.1356 136.294 12.3962 136.294 14.4462V14.6929C136.294 16.6812 137.29 17.9862 139.178 17.9862C140.999 17.9887 142.064 16.6837 142.064 14.6337Z" fill="#BC955B"/>
<path d="M150.218 15.3787V15.132C150.218 9.85033 154.202 6.62115 159.377 6.62115C164.487 6.62115 168.469 9.75659 168.469 14.9766V15.2232C168.469 20.5666 164.457 23.7045 159.345 23.7045C154.232 23.7045 150.218 20.722 150.218 15.3787ZM162.199 15.2528V15.0358C162.199 12.4899 161.29 11.1233 159.377 11.1233C157.464 11.1233 156.458 12.3962 156.458 14.9445V15.1912C156.458 17.8332 157.4 19.1999 159.377 19.1999C161.257 19.1999 162.199 17.8332 162.199 15.2528Z" fill="#BC955B"/>
<path d="M176.812 20.8157V23.3073H170.636V0H176.812V9.4137C177.315 8.54207 178.047 7.82188 178.931 7.32972C179.815 6.83756 180.816 6.59184 181.83 6.6187C185.565 6.6187 188.698 9.38163 188.698 15.0678V15.3145C188.698 20.9884 185.53 23.702 181.8 23.702C179.384 23.7045 177.628 22.5672 176.812 20.8157ZM182.427 15.2529V15.0062C182.427 12.3962 181.359 11.1529 179.509 11.1529C177.658 11.1529 176.662 12.5195 176.662 15.0062V15.2529C176.662 17.7716 177.658 19.0445 179.548 19.0445C181.439 19.0445 182.427 17.7395 182.427 15.2529Z" fill="#BC955B"/>
<path d="M0 0.673462H6.17845V10.3363C7.08741 8.62675 8.84556 7.29216 11.6048 7.29216C14.7077 7.29216 16.8718 9.24841 16.8718 13.2867V23.9734H10.6934V14.6534C10.6934 13.008 10.0982 12.1692 8.62392 12.1692C7.08741 12.1692 6.17845 13.0696 6.17845 14.9963V23.9734H0V0.673462Z" fill="#691B32"/>
<path d="M19.6336 3.43887C19.6336 1.63803 21.0754 0.333038 22.988 0.333038C24.9006 0.333038 26.3126 1.63803 26.3126 3.43887C26.3126 5.23971 24.8707 6.5151 22.988 6.5151C21.1053 6.5151 19.6336 5.2101 19.6336 3.43887ZM19.915 7.72634H26.061V23.9734H19.915V7.72634Z" fill="#691B32"/>
<path d="M28.4891 16.0201V15.7734C28.4891 10.1192 31.5945 7.29216 35.325 7.29216C37.8975 7.29216 39.434 8.31593 40.3429 9.96382V0.673462H46.5214V23.9734H40.3305V21.3634C39.5162 23.0409 37.7904 24.3779 35.3125 24.3779C31.6119 24.3779 28.4891 21.7359 28.4891 16.0201ZM40.4998 15.8967V15.6599C40.4998 13.193 39.5037 11.8387 37.6459 11.8387C35.7882 11.8387 34.7622 13.0721 34.7622 15.692V15.9387C34.7622 18.4549 35.7956 19.7278 37.6136 19.7278C39.4315 19.7278 40.4874 18.413 40.4874 15.9066L40.4998 15.8967Z" fill="#691B32"/>
<path d="M48.6107 19.4688C48.6107 15.6476 51.746 14.1576 57.4214 14.1576H58.8334V13.8763C58.8334 12.5097 58.5844 11.5155 56.9209 11.5155C55.5089 11.5155 55.0706 12.4184 54.976 13.2571H49.2059C49.455 9.28049 52.5927 7.2601 57.2969 7.2601C62.0634 7.2601 64.9496 9.18675 64.9496 13.4742V23.9734H58.9903V22.1109C58.3005 23.2284 56.8586 24.3779 54.1915 24.3779C51.2455 24.3779 48.6107 22.9496 48.6107 19.4688ZM58.8334 18.2896V17.4509H57.5161C55.4466 17.4509 54.6946 17.853 54.6946 19.0026C54.6946 19.7796 55.2897 20.2779 56.4179 20.2779C57.8299 20.2779 58.8334 19.5009 58.8334 18.2896Z" fill="#691B32"/>
<path d="M67.9604 0.673462H74.1065V23.9734H67.9604V0.673462Z" fill="#691B32"/>
<path d="M76.3328 23.85H82.449C82.6681 24.8368 83.2334 25.7767 85.146 25.7767C87.4968 25.7767 88.2813 24.4075 88.2813 22.6684V20.1521C87.467 21.7063 85.7412 23.0113 83.3007 23.0113C79.5652 23.0113 76.4324 20.3396 76.4324 15.3071V15.0604C76.4274 10.1809 79.5403 7.27243 83.2758 7.27243C85.8483 7.27243 87.3848 8.32826 88.2937 9.98602V7.72634H94.4722V22.5672C94.4722 27.4147 91.2348 29.9926 85.1261 29.9926C79.4382 30 76.7711 27.7008 76.3328 23.85ZM88.4706 15.3071V15.09C88.4706 13.1017 87.4346 11.7967 85.5843 11.7967C83.734 11.7967 82.698 13.0697 82.698 15.1196V15.3663C82.698 17.3547 83.6941 18.6597 85.5843 18.6597C87.4022 18.6621 88.4706 17.3571 88.4706 15.3071Z" fill="#691B32"/>
<path d="M96.6238 16.0521V15.8054C96.6238 10.5238 100.608 7.29462 105.781 7.29462C110.893 7.29462 114.875 10.4325 114.875 15.65V15.8967C114.875 21.24 110.861 24.3779 105.748 24.3779C100.636 24.3779 96.6238 21.3954 96.6238 16.0521ZM108.602 15.9288V15.7092C108.602 13.1634 107.693 11.7967 105.781 11.7967C103.868 11.7967 102.865 13.0696 102.865 15.6179V15.8646C102.865 18.5067 103.806 19.8734 105.781 19.8734C107.663 19.8734 108.602 18.5067 108.602 15.9288Z" fill="#691B32"/>
<path d="M206.177 6.64832H212.356V9.13495C212.873 8.23189 213.627 7.48388 214.538 6.96982C215.449 6.45575 216.483 6.19468 217.531 6.21414C219.727 6.21414 221.169 7.11456 221.921 8.82412C222.548 7.9976 223.363 7.3301 224.301 6.8764C225.239 6.4227 226.272 6.19573 227.315 6.21414C230.453 6.21414 232.647 8.23207 232.647 12.1791V22.8953H226.501V13.2966C226.501 11.8683 225.778 11.1233 224.65 11.1233C223.271 11.1233 222.486 12.0237 222.486 13.5754V22.8953H216.37V13.2966C216.37 11.8683 215.623 11.1233 214.552 11.1233C213.14 11.1233 212.356 12.0237 212.356 13.5754V22.8953H206.177V6.64832Z" fill="#691B32"/>
<path d="M239.667 14.6731L234.624 6.64832H241.711L243.938 10.625L246.164 6.64832H252.467L247.354 14.197L253 22.8953H245.913L243.278 18.3735L240.519 22.9077H234.278L239.667 14.6731Z" fill="#691B32"/>
<path d="M122.401 19.6415C125.176 19.6415 127.426 17.4127 127.426 14.6633C127.426 11.9139 125.176 9.68506 122.401 9.68506C119.625 9.68506 117.376 11.9139 117.376 14.6633C117.376 17.4127 119.625 19.6415 122.401 19.6415Z" fill="#BC955B"/>
<path d="M195.887 19.6415C198.663 19.6415 200.913 17.4127 200.913 14.6633C200.913 11.9139 198.663 9.68506 195.887 9.68506C193.112 9.68506 190.862 11.9139 190.862 14.6633C190.862 17.4127 193.112 19.6415 195.887 19.6415Z" fill="#BC955B"/>
</g>
<defs>
<clipPath id="clip0_15_439">
<rect width="253" height="30" fill="white"/>
</clipPath>
</defs>
</svg>
